<svg width="173" height="61" viewBox="0 0 173 61" fill="none" xmlns="http://www.w3.org/2000/svg">
<path d="M63.532 27.4C63.532 26.032 63.808 24.832 64.36 23.8C64.912 22.768 65.68 21.964 66.664 21.388C67.648 20.788 68.788 20.488 70.084 20.488C71.644 20.488 72.952 20.86 74.008 21.604C75.064 22.324 75.856 23.272 76.384 24.448C76.936 25.624 77.212 26.896 77.212 28.264C77.212 29.632 76.936 30.808 76.384 31.792C75.856 32.776 75.1 33.544 74.116 34.096C73.132 34.624 71.98 34.888 70.66 34.888C69.364 34.888 68.176 34.588 67.096 33.988C66.016 33.388 65.152 32.524 64.504 31.396C63.856 30.268 63.532 28.936 63.532 27.4ZM56.152 27.4C56.152 29.368 56.488 31.18 57.16 32.836C57.856 34.492 58.828 35.932 60.076 37.156C61.348 38.356 62.824 39.292 64.504 39.964C66.208 40.612 68.068 40.936 70.084 40.936C72.1 40.936 73.936 40.612 75.592 39.964C77.272 39.292 78.724 38.356 79.948 37.156C81.172 35.932 82.108 34.492 82.756 32.836C83.404 31.18 83.728 29.368 83.728 27.4C83.728 25.408 83.392 23.608 82.72 22C82.048 20.368 81.1 18.976 79.876 17.824C78.676 16.648 77.236 15.748 75.556 15.124C73.9 14.476 72.076 14.152 70.084 14.152C68.14 14.152 66.328 14.476 64.648 15.124C62.968 15.748 61.48 16.648 60.184 17.824C58.912 18.976 57.916 20.368 57.196 22C56.5 23.608 56.152 25.408 56.152 27.4ZM67.6 29.2L79.84 40.576H87.148L74.62 29.2H67.6ZM92.8276 34.816C92.8276 34.456 92.8996 34.168 93.0436 33.952C93.1876 33.712 93.4276 33.532 93.7636 33.412C94.0996 33.292 94.5436 33.232 95.0956 33.232C95.8876 33.232 96.6436 33.34 97.3636 33.556C98.0836 33.772 98.6836 34.084 99.1636 34.492V31.864C98.8516 31.528 98.3836 31.228 97.7596 30.964C97.1596 30.676 96.4516 30.448 95.6356 30.28C94.8436 30.112 93.9916 30.028 93.0796 30.028C90.9676 30.028 89.3476 30.484 88.2196 31.396C87.1156 32.308 86.5636 33.556 86.5636 35.14C86.5636 36.268 86.8396 37.228 87.3916 38.02C87.9436 38.788 88.6636 39.376 89.5516 39.784C90.4636 40.168 91.4476 40.36 92.5036 40.36C93.6076 40.36 94.6156 40.168 95.5276 39.784C96.4636 39.4 97.1956 38.836 97.7236 38.092C98.2756 37.348 98.5516 36.448 98.5516 35.392L97.9756 33.232C97.9756 33.976 97.8196 34.6 97.5076 35.104C97.2196 35.584 96.8356 35.944 96.3556 36.184C95.8756 36.4 95.3716 36.508 94.8436 36.508C94.4836 36.508 94.1476 36.448 93.8356 36.328C93.5236 36.184 93.2716 35.992 93.0796 35.752C92.9116 35.488 92.8276 35.176 92.8276 34.816ZM89.8036 28.876C90.0196 28.756 90.4036 28.588 90.9556 28.372C91.5076 28.156 92.1436 27.964 92.8636 27.796C93.6076 27.628 94.3276 27.544 95.0236 27.544C95.5276 27.544 95.9716 27.604 96.3556 27.724C96.7396 27.82 97.0516 27.976 97.2916 28.192C97.5316 28.384 97.6996 28.624 97.7956 28.912C97.9156 29.2 97.9756 29.524 97.9756 29.884V40H103.916V28.408C103.916 27.232 103.556 26.236 102.836 25.42C102.14 24.604 101.18 23.992 99.9556 23.584C98.7556 23.152 97.3996 22.936 95.8876 22.936C94.3276 22.936 92.8516 23.14 91.4596 23.548C90.0916 23.932 88.8796 24.352 87.8236 24.808L89.8036 28.876ZM117.439 29.92V40H123.955V29.272C123.955 27.304 123.499 25.78 122.587 24.7C121.675 23.596 120.139 23.044 117.979 23.044C116.707 23.044 115.651 23.308 114.811 23.836C113.995 24.34 113.359 25.024 112.903 25.888V23.44H106.675V40H112.903V29.92C112.903 29.32 112.999 28.816 113.191 28.408C113.407 28 113.695 27.7 114.055 27.508C114.439 27.316 114.871 27.22 115.351 27.22C116.167 27.22 116.719 27.46 117.007 27.94C117.295 28.396 117.439 29.056 117.439 29.92ZM139.394 11.92V40H145.622V11.92H139.394ZM125.966 31.72C125.966 33.592 126.338 35.176 127.082 36.472C127.85 37.744 128.822 38.716 129.998 39.388C131.198 40.036 132.446 40.36 133.742 40.36C135.134 40.36 136.37 40.012 137.45 39.316C138.53 38.62 139.382 37.624 140.006 36.328C140.654 35.032 140.978 33.496 140.978 31.72C140.978 29.92 140.654 28.384 140.006 27.112C139.382 25.816 138.53 24.82 137.45 24.124C136.37 23.428 135.134 23.08 133.742 23.08C132.446 23.08 131.198 23.416 129.998 24.088C128.822 24.736 127.85 25.696 127.082 26.968C126.338 28.24 125.966 29.824 125.966 31.72ZM132.518 31.72C132.518 30.976 132.674 30.328 132.986 29.776C133.298 29.2 133.718 28.756 134.246 28.444C134.774 28.132 135.35 27.976 135.974 27.976C136.526 27.976 137.066 28.132 137.594 28.444C138.122 28.732 138.554 29.152 138.89 29.704C139.226 30.256 139.394 30.928 139.394 31.72C139.394 32.512 139.226 33.184 138.89 33.736C138.554 34.288 138.122 34.72 137.594 35.032C137.066 35.32 136.526 35.464 135.974 35.464C135.35 35.464 134.774 35.308 134.246 34.996C133.718 34.684 133.298 34.24 132.986 33.664C132.674 33.088 132.518 32.44 132.518 31.72ZM148.029 17.428C148.029 18.364 148.365 19.132 149.037 19.732C149.733 20.332 150.561 20.632 151.521 20.632C152.505 20.632 153.333 20.332 154.005 19.732C154.701 19.132 155.049 18.364 155.049 17.428C155.049 16.468 154.701 15.688 154.005 15.088C153.333 14.488 152.505 14.188 151.521 14.188C150.561 14.188 149.733 14.488 149.037 15.088C148.365 15.688 148.029 16.468 148.029 17.428ZM148.533 23.44V40H154.509V23.44H148.533ZM157.506 11.92V40H163.734V11.92H157.506Z" fill="white"/>
<path opacity="0.8" d="M73.56 51.8C73.56 51.144 73.704 50.572 73.992 50.084C74.288 49.588 74.672 49.2 75.144 48.92C75.616 48.64 76.128 48.5 76.68 48.5C77.08 48.5 77.444 48.552 77.772 48.656C78.108 48.76 78.412 48.908 78.684 49.1C78.956 49.284 79.188 49.5 79.38 49.748V48.404C79.028 48.092 78.644 47.86 78.228 47.708C77.812 47.556 77.296 47.48 76.68 47.48C76.096 47.48 75.548 47.588 75.036 47.804C74.532 48.012 74.088 48.312 73.704 48.704C73.32 49.088 73.02 49.544 72.804 50.072C72.588 50.6 72.48 51.176 72.48 51.8C72.48 52.424 72.588 53 72.804 53.528C73.02 54.056 73.32 54.516 73.704 54.908C74.088 55.292 74.532 55.592 75.036 55.808C75.548 56.016 76.096 56.12 76.68 56.12C77.296 56.12 77.812 56.044 78.228 55.892C78.644 55.74 79.028 55.508 79.38 55.196V53.852C79.188 54.1 78.956 54.32 78.684 54.512C78.412 54.696 78.108 54.84 77.772 54.944C77.444 55.048 77.08 55.1 76.68 55.1C76.128 55.1 75.616 54.96 75.144 54.68C74.672 54.4 74.288 54.012 73.992 53.516C73.704 53.02 73.56 52.448 73.56 51.8ZM82.0748 46.64H81.1148V56H82.0748V46.64ZM84.6548 52.64V56H85.6148V52.52C85.6148 52.04 85.5348 51.64 85.3748 51.32C85.2228 51 85.0028 50.76 84.7148 50.6C84.4348 50.44 84.1028 50.36 83.7188 50.36C83.3348 50.36 82.9948 50.46 82.6988 50.66C82.4108 50.86 82.1828 51.132 82.0148 51.476C81.8468 51.812 81.7628 52.2 81.7628 52.64H82.0748C82.0748 52.376 82.1308 52.14 82.2428 51.932C82.3628 51.724 82.5268 51.56 82.7348 51.44C82.9508 51.32 83.1988 51.26 83.4788 51.26C83.8708 51.26 84.1628 51.376 84.3548 51.608C84.5548 51.84 84.6548 52.184 84.6548 52.64ZM87.8515 54.296C87.8515 54.096 87.8995 53.924 87.9955 53.78C88.0915 53.636 88.2355 53.524 88.4275 53.444C88.6275 53.364 88.8835 53.324 89.1955 53.324C89.5315 53.324 89.8475 53.368 90.1435 53.456C90.4395 53.536 90.7275 53.672 91.0075 53.864V53.3C90.9515 53.228 90.8435 53.136 90.6835 53.024C90.5235 52.904 90.3075 52.8 90.0355 52.712C89.7715 52.616 89.4395 52.568 89.0395 52.568C88.3595 52.568 87.8275 52.732 87.4435 53.06C87.0675 53.38 86.8795 53.808 86.8795 54.344C86.8795 54.72 86.9675 55.04 87.1435 55.304C87.3195 55.568 87.5515 55.772 87.8395 55.916C88.1355 56.052 88.4515 56.12 88.7875 56.12C89.0915 56.12 89.3955 56.064 89.6995 55.952C90.0115 55.84 90.2715 55.668 90.4795 55.436C90.6955 55.204 90.8035 54.912 90.8035 54.56L90.6115 53.84C90.6115 54.128 90.5395 54.384 90.3955 54.608C90.2595 54.824 90.0715 54.992 89.8315 55.112C89.5995 55.232 89.3355 55.292 89.0395 55.292C88.8075 55.292 88.5995 55.256 88.4155 55.184C88.2395 55.104 88.0995 54.988 87.9955 54.836C87.8995 54.684 87.8515 54.504 87.8515 54.296ZM87.7075 51.752C87.7955 51.688 87.9155 51.612 88.0675 51.524C88.2195 51.436 88.4035 51.36 88.6195 51.296C88.8435 51.232 89.0915 51.2 89.3635 51.2C89.5315 51.2 89.6915 51.216 89.8435 51.248C89.9955 51.28 90.1275 51.332 90.2395 51.404C90.3595 51.476 90.4515 51.576 90.5155 51.704C90.5795 51.824 90.6115 51.98 90.6115 52.172V56H91.5715V52.04C91.5715 51.68 91.4795 51.376 91.2955 51.128C91.1195 50.88 90.8675 50.692 90.5395 50.564C90.2195 50.428 89.8435 50.36 89.4115 50.36C88.8995 50.36 88.4595 50.436 88.0915 50.588C87.7315 50.74 87.4475 50.892 87.2395 51.044L87.7075 51.752ZM94.1569 50.48H93.1969V56H94.1569V50.48ZM95.8249 51.536L96.3529 50.744C96.2089 50.592 96.0489 50.492 95.8729 50.444C95.7049 50.388 95.5209 50.36 95.3209 50.36C95.0649 50.36 94.8129 50.46 94.5649 50.66C94.3169 50.86 94.1129 51.132 93.9529 51.476C93.8009 51.812 93.7249 52.2 93.7249 52.64H94.1569C94.1569 52.376 94.1809 52.14 94.2289 51.932C94.2849 51.724 94.3809 51.56 94.5169 51.44C94.6529 51.32 94.8409 51.26 95.0809 51.26C95.2409 51.26 95.3729 51.284 95.4769 51.332C95.5809 51.372 95.6969 51.44 95.8249 51.536ZM96.6544 53.24C96.6544 53.792 96.7784 54.288 97.0264 54.728C97.2824 55.16 97.6264 55.5 98.0584 55.748C98.4904 55.996 98.9744 56.12 99.5104 56.12C100.054 56.12 100.538 55.996 100.962 55.748C101.394 55.5 101.734 55.16 101.982 54.728C102.238 54.288 102.366 53.792 102.366 53.24C102.366 52.68 102.238 52.184 101.982 51.752C101.734 51.32 101.394 50.98 100.962 50.732C100.538 50.484 100.054 50.36 99.5104 50.36C98.9744 50.36 98.4904 50.484 98.0584 50.732C97.6264 50.98 97.2824 51.32 97.0264 51.752C96.7784 52.184 96.6544 52.68 96.6544 53.24ZM97.6264 53.24C97.6264 52.856 97.7064 52.516 97.8664 52.22C98.0344 51.916 98.2584 51.68 98.5384 51.512C98.8264 51.344 99.1504 51.26 99.5104 51.26C99.8704 51.26 100.19 51.344 100.47 51.512C100.758 51.68 100.982 51.916 101.142 52.22C101.31 52.516 101.394 52.856 101.394 53.24C101.394 53.624 101.31 53.964 101.142 54.26C100.982 54.556 100.758 54.792 100.47 54.968C100.19 55.136 99.8704 55.22 99.5104 55.22C99.1504 55.22 98.8264 55.136 98.5384 54.968C98.2584 54.792 98.0344 54.556 97.8664 54.26C97.7064 53.964 97.6264 53.624 97.6264 53.24ZM103.313 56.36C103.313 56.832 103.429 57.248 103.661 57.608C103.893 57.976 104.213 58.26 104.621 58.46C105.037 58.66 105.513 58.76 106.049 58.76C106.513 58.76 106.953 58.652 107.369 58.436C107.785 58.22 108.125 57.896 108.389 57.464C108.653 57.04 108.785 56.512 108.785 55.88V50.48H107.825V55.88C107.825 56.344 107.733 56.72 107.549 57.008C107.373 57.304 107.149 57.52 106.877 57.656C106.605 57.792 106.329 57.86 106.049 57.86C105.689 57.86 105.377 57.788 105.113 57.644C104.849 57.508 104.645 57.324 104.501 57.092C104.357 56.868 104.285 56.624 104.285 56.36H103.313ZM103.205 53.24C103.205 53.832 103.329 54.344 103.577 54.776C103.825 55.208 104.157 55.54 104.573 55.772C104.989 56.004 105.445 56.12 105.941 56.12C106.405 56.12 106.809 56.004 107.153 55.772C107.497 55.54 107.765 55.208 107.957 54.776C108.157 54.344 108.257 53.832 108.257 53.24C108.257 52.64 108.157 52.128 107.957 51.704C107.765 51.272 107.497 50.94 107.153 50.708C106.809 50.476 106.405 50.36 105.941 50.36C105.445 50.36 104.989 50.476 104.573 50.708C104.157 50.94 103.825 51.272 103.577 51.704C103.329 52.128 103.205 52.64 103.205 53.24ZM104.177 53.24C104.177 52.816 104.261 52.456 104.429 52.16C104.605 51.864 104.837 51.64 105.125 51.488C105.413 51.336 105.725 51.26 106.061 51.26C106.269 51.26 106.477 51.304 106.685 51.392C106.893 51.48 107.081 51.608 107.249 51.776C107.425 51.944 107.565 52.152 107.669 52.4C107.773 52.64 107.825 52.92 107.825 53.24C107.825 53.664 107.737 54.024 107.561 54.32C107.385 54.616 107.161 54.84 106.889 54.992C106.617 55.144 106.341 55.22 106.061 55.22C105.725 55.22 105.413 55.144 105.125 54.992C104.837 54.84 104.605 54.616 104.429 54.32C104.261 54.024 104.177 53.664 104.177 53.24ZM110.826 47.6L110.226 51.2H110.886L111.966 47.6H110.826ZM112.51 53.24C112.51 53.792 112.634 54.288 112.882 54.728C113.138 55.16 113.482 55.5 113.914 55.748C114.346 55.996 114.83 56.12 115.366 56.12C115.91 56.12 116.394 55.996 116.818 55.748C117.25 55.5 117.59 55.16 117.838 54.728C118.094 54.288 118.222 53.792 118.222 53.24C118.222 52.68 118.094 52.184 117.838 51.752C117.59 51.32 117.25 50.98 116.818 50.732C116.394 50.484 115.91 50.36 115.366 50.36C114.83 50.36 114.346 50.484 113.914 50.732C113.482 50.98 113.138 51.32 112.882 51.752C112.634 52.184 112.51 52.68 112.51 53.24ZM113.482 53.24C113.482 52.856 113.562 52.516 113.722 52.22C113.89 51.916 114.114 51.68 114.394 51.512C114.682 51.344 115.006 51.26 115.366 51.26C115.726 51.26 116.046 51.344 116.326 51.512C116.614 51.68 116.838 51.916 116.998 52.22C117.166 52.516 117.25 52.856 117.25 53.24C117.25 53.624 117.166 53.964 116.998 54.26C116.838 54.556 116.614 54.792 116.326 54.968C116.046 55.136 115.726 55.22 115.366 55.22C115.006 55.22 114.682 55.136 114.394 54.968C114.114 54.792 113.89 54.556 113.722 54.26C113.562 53.964 113.482 53.624 113.482 53.24ZM123.081 52.64V56H124.041V52.52C124.041 51.856 123.869 51.332 123.525 50.948C123.189 50.556 122.729 50.36 122.145 50.36C121.785 50.36 121.465 50.44 121.185 50.6C120.913 50.76 120.685 51.008 120.501 51.344V50.48H119.541V56H120.501V52.64C120.501 52.368 120.557 52.128 120.669 51.92C120.789 51.712 120.953 51.552 121.161 51.44C121.377 51.32 121.625 51.26 121.905 51.26C122.289 51.26 122.581 51.376 122.781 51.608C122.981 51.84 123.081 52.184 123.081 52.64ZM125.845 46.64V56H126.805V46.64H125.845ZM128.611 48.2C128.611 48.376 128.675 48.532 128.803 48.668C128.939 48.796 129.095 48.86 129.271 48.86C129.455 48.86 129.611 48.796 129.739 48.668C129.867 48.532 129.931 48.376 129.931 48.2C129.931 48.016 129.867 47.86 129.739 47.732C129.611 47.604 129.455 47.54 129.271 47.54C129.095 47.54 128.939 47.604 128.803 47.732C128.675 47.86 128.611 48.016 128.611 48.2ZM128.791 50.48V56H129.751V50.48H128.791ZM131.668 46.64V56H132.628V46.64H131.668ZM134.668 50.48L132.268 52.76L134.908 56H136.108L133.468 52.76L135.868 50.48H134.668ZM139.771 50.48V51.38H142.531V50.48H139.771ZM140.671 48.56V56H141.631V48.56H140.671ZM143.494 48.2C143.494 48.376 143.558 48.532 143.686 48.668C143.822 48.796 143.978 48.86 144.154 48.86C144.338 48.86 144.494 48.796 144.622 48.668C144.75 48.532 144.814 48.376 144.814 48.2C144.814 48.016 144.75 47.86 144.622 47.732C144.494 47.604 144.338 47.54 144.154 47.54C143.978 47.54 143.822 47.604 143.686 47.732C143.558 47.86 143.494 48.016 143.494 48.2ZM143.674 50.48V56H144.634V50.48H143.674ZM154.171 52.52C154.171 52.064 154.099 51.676 153.955 51.356C153.819 51.028 153.619 50.78 153.355 50.612C153.091 50.444 152.771 50.36 152.395 50.36C152.027 50.36 151.699 50.448 151.411 50.624C151.123 50.792 150.883 51.048 150.691 51.392C150.563 51.064 150.359 50.812 150.079 50.636C149.807 50.452 149.479 50.36 149.095 50.36C148.751 50.36 148.451 50.436 148.195 50.588C147.947 50.74 147.739 50.972 147.571 51.284V50.48H146.611V56H147.571V52.64C147.571 52.352 147.623 52.104 147.727 51.896C147.831 51.688 147.979 51.532 148.171 51.428C148.363 51.316 148.591 51.26 148.855 51.26C149.215 51.26 149.479 51.372 149.647 51.596C149.823 51.82 149.911 52.168 149.911 52.64V56H150.871V52.64C150.871 52.352 150.923 52.104 151.027 51.896C151.131 51.688 151.279 51.532 151.471 51.428C151.663 51.316 151.891 51.26 152.155 51.26C152.515 51.26 152.779 51.372 152.947 51.596C153.123 51.82 153.211 52.168 153.211 52.64V56H154.171V52.52ZM156.202 54.308L155.446 54.776C155.55 54.992 155.702 55.204 155.902 55.412C156.11 55.62 156.362 55.792 156.658 55.928C156.954 56.056 157.286 56.12 157.654 56.12C158.222 56.12 158.678 55.96 159.022 55.64C159.374 55.32 159.55 54.92 159.55 54.44C159.55 54.112 159.47 53.844 159.31 53.636C159.158 53.428 158.95 53.252 158.686 53.108C158.422 52.956 158.13 52.816 157.81 52.688C157.618 52.608 157.434 52.524 157.258 52.436C157.082 52.348 156.938 52.248 156.826 52.136C156.714 52.024 156.658 51.896 156.658 51.752C156.658 51.568 156.73 51.432 156.874 51.344C157.018 51.256 157.19 51.212 157.39 51.212C157.678 51.212 157.934 51.28 158.158 51.416C158.39 51.552 158.582 51.724 158.734 51.932L159.502 51.44C159.39 51.232 159.234 51.048 159.034 50.888C158.834 50.728 158.602 50.6 158.338 50.504C158.082 50.408 157.806 50.36 157.51 50.36C157.214 50.36 156.926 50.412 156.646 50.516C156.374 50.62 156.15 50.78 155.974 50.996C155.806 51.212 155.722 51.484 155.722 51.812C155.722 52.132 155.802 52.4 155.962 52.616C156.13 52.824 156.334 52.996 156.574 53.132C156.822 53.26 157.066 53.372 157.306 53.468C157.522 53.548 157.726 53.636 157.918 53.732C158.11 53.82 158.266 53.932 158.386 54.068C158.514 54.196 158.578 54.356 158.578 54.548C158.578 54.764 158.498 54.936 158.338 55.064C158.186 55.184 157.974 55.244 157.702 55.244C157.478 55.244 157.27 55.204 157.078 55.124C156.894 55.036 156.73 54.92 156.586 54.776C156.442 54.632 156.314 54.476 156.202 54.308ZM160.334 53.24C160.334 53.792 160.458 54.288 160.706 54.728C160.962 55.16 161.306 55.5 161.738 55.748C162.17 55.996 162.654 56.12 163.19 56.12C163.734 56.12 164.218 55.996 164.642 55.748C165.074 55.5 165.414 55.16 165.662 54.728C165.918 54.288 166.046 53.792 166.046 53.24C166.046 52.68 165.918 52.184 165.662 51.752C165.414 51.32 165.074 50.98 164.642 50.732C164.218 50.484 163.734 50.36 163.19 50.36C162.654 50.36 162.17 50.484 161.738 50.732C161.306 50.98 160.962 51.32 160.706 51.752C160.458 52.184 160.334 52.68 160.334 53.24ZM161.306 53.24C161.306 52.856 161.386 52.516 161.546 52.22C161.714 51.916 161.938 51.68 162.218 51.512C162.506 51.344 162.83 51.26 163.19 51.26C163.55 51.26 163.87 51.344 164.15 51.512C164.438 51.68 164.662 51.916 164.822 52.22C164.99 52.516 165.074 52.856 165.074 53.24C165.074 53.624 164.99 53.964 164.822 54.26C164.662 54.556 164.438 54.792 164.15 54.968C163.87 55.136 163.55 55.22 163.19 55.22C162.83 55.22 162.506 55.136 162.218 54.968C161.938 54.792 161.714 54.556 161.546 54.26C161.386 53.964 161.306 53.624 161.306 53.24ZM167.365 46.64V56H168.325V46.64H167.365ZM170.13 48.2C170.13 48.376 170.194 48.532 170.322 48.668C170.458 48.796 170.614 48.86 170.79 48.86C170.974 48.86 171.13 48.796 171.258 48.668C171.386 48.532 171.45 48.376 171.45 48.2C171.45 48.016 171.386 47.86 171.258 47.732C171.13 47.604 170.974 47.54 170.79 47.54C170.614 47.54 170.458 47.604 170.322 47.732C170.194 47.86 170.13 48.016 170.13 48.2ZM170.31 50.48V56H171.27V50.48H170.31Z" fill="white"/>
<path d="M3 55L39.2669 18.7331C45.0728 12.9272 40.9608 3 32.75 3V3C24.5392 3 20.4272 12.9272 26.2331 18.7331L62.5 55M30 40L46 55.5M28 50.5L20 58.5" stroke="white" stroke-width="6"/>
</svg>
